<svg width="1280" height="720" xmlns="http://www.w3.org/2000/svg" xmlns:xlink="http://www.w3.org/1999/xlink" overflow="hidden"><defs><clipPath id="clip0"><rect x="0" y="0" width="1280" height="720"/></clipPath></defs><g clip-path="url(#clip0)"><rect x="0" y="0" width="1280" height="720" fill="#FFFFFF"/><text fill="#71BF44" fill-opacity="0.501961" font-family="Aptos,Aptos_MSFontService,sans-serif" font-weight="400" font-size="18.6667" transform="translate(1170.83 24)">RESTRICTED</text><rect x="0.500053" y="0.500053" width="1280" height="720" stroke="#156082" stroke-width="1.33333" stroke-miterlimit="8" fill="#46B1E1"/><rect x="318" y="34" width="644" height="91" stroke="#042433" stroke-width="2" stroke-miterlimit="8" fill="#FFFFFF"/><text font-family="Aptos,Aptos_MSFontService,sans-serif" font-weight="700" font-size="32" transform="translate(363.943 90)">ShopNest Retail Performance Insights</text><g><g><g><path d="M95 54C95.0032 50.134 91.8718 46.9974 88.0058 46.9942 84.1398 46.991 81.0032 50.1224 81 53.9884 80.998 56.3576 82.1946 58.5671 84.18 59.86L79 75 79 75C77.5703 74.9984 76.1744 75.4346 75 76.25L64.56 68.42C65.8988 64.7932 64.044 60.7678 60.4172 59.429 56.7904 58.0903 52.765 59.945 51.4263 63.5718 50.309 66.5984 51.405 69.9965 54.08 71.8L47.41 93 47 93C43.134 92.9908 39.9926 96.1173 39.9834 99.9833 39.9742 103.849 43.1007 106.991 46.9667 107 50.8327 107.009 53.9741 103.883 53.9833 100.017 53.9886 97.8016 52.9452 95.7148 51.17 94.39L57.9 73 58 73C59.4986 72.9972 60.9568 72.5135 62.16 71.62L72.51 79.37C72.177 80.207 72.004 81.0991 72 82 71.9985 85.866 75.1313 89.0012 78.9973 89.0027 82.8633 89.0042 85.9985 85.8714 86 82.0055 86.0009 79.6458 84.8129 77.4444 82.84 76.15L88 61C91.866 61 95 57.866 95 54Z"/><path d="M35 47 29 47 29 117 98 117 98 111 35 111 35 47Z"/></g></g></g></g></svg>